<?xml version="1.0" encoding="utf-8"?>
<!-- Generator: Adobe Illustrator 17.0.0, SVG Export Plug-In . SVG Version: 6.00 Build 0)  -->
<!DOCTYPE svg PUBLIC "-//W3C//DTD SVG 1.1//EN" "http://www.w3.org/Graphics/SVG/1.1/DTD/svg11.dtd">
<svg version="1.1" id="Layer_1" xmlns="http://www.w3.org/2000/svg" xmlns:xlink="http://www.w3.org/1999/xlink" x="0px" y="0px"
	 width="576px" height="252px" viewBox="0 0 576 252" enable-background="new 0 0 576 252" xml:space="preserve">
<path fill-rule="evenodd" clip-rule="evenodd" d="M351.976,155.827c57.951,1.42,109.624,13.537,153.981,38.119
	c-46.464-17.269-93.101-27.284-143.727-28.824c-18.372-0.558-37.661-0.909-49.842,15.513h-14.386
	C309.143,160.096,330.201,155.294,351.976,155.827 M260.162,180.894c15-28.797,35.312-43.782,61.235-44.183h51.265
	c17.523,0,29.314-3.337,38.098-19.28c4.012-7.28,6.992-15.394,11.461-21.441c6.465-8.749,15.152-15.971,29.773-19.127
	c-6.138,5.077-9.371,11.427,0.599,13.511c18.245,3.813,29.697,4.723,46.234,12.415c19.532,9.088,30.126,23.366,27.292,45.124
	c-1.904,14.61-7.52,26.744-14.536,37.946c-33.25-15.982-66.796-26.315-100.547-32.773c-23.901-4.573-62.366-7.742-87.638-3.949
	c-21.533,3.23-32.826,14.181-44.651,31.757H260.162z M312.902,81.213c-2.584,5.067-8.828,15.549-9.861,20.675
	c-1.869,9.268,6.823,12.524,14.03,14.369c12.592,3.224,28.329,3.693,40.416,2.665c13.927-1.185,23.6-5.886,28.574-14.517h17.459
	c-6.592,13.026-17.966,19.191-30.889,21.578c-15.754,2.91-57.047,2.781-71.244,0.168c-15.63-2.878-28.922-11.32-40.238-23.485
	C274.818,88.991,291.587,80.962,312.902,81.213z M332.054,85.465l11.57,4.403c-3.881,7.324-1.457,11.18,3.984,13.378
	c6.306,2.547,14.86,1.89,19.414-3.65l4.659,1.843c-3.119,5.168-7.631,7.085-12.963,7.677c-7.761,0.858-17.204-0.239-24.721-2.165
	c-6.407-1.639-9.943-6.144-6.832-12.608C328.581,91.408,330.087,88.462,332.054,85.465z M364.833,73.632
	c17.318,7.737,36.844,18.161,56.015,10.423c-16.038,19.344-52.593,0.611-70.664-7.025c-27.785-11.744-53.651-14.672-77.19-6.921
	c-20.853,6.868-41.401,24.456-57.079,39.391l39.164,31.895l-16.515,24.844c-10.016,15.063,1.546,22.072,15.339,24.183h162.933
	l0.034,0.017c8.531,0.072,21.692,0.4,34.609,1.594c13.203,1.221,26.235,3.368,34.207,7.11c5.109,2.399,8.249,5.507,9.818,9.55
	c1.506,3.881,1.398,8.297,0.077,13.522c-0.884,3.497-2.13,7.065-3.652,10.521c9.691-5.678,18.782-13.952,26.964-23.464
	c14.831-17.24,26.594-38.453,33.64-55.831c5.454-13.449,5.682-26.08,1.589-37.065c-4.294-11.525-13.375-21.397-26.204-28.654
	c-10.47-5.924-24.496-10.988-38.892-15.041c-14.995-4.222-30.324-7.322-42.484-9.15c-3.283-0.493-7.897-1.074-10.649-1.38
	c-13.53-13.912-24.991-20.656-43.935-25.381c-16.491-4.113-34.345-4.918-51.236-4.918H122.009c-5.666,0-11.021-0.805-16.059-2.595
	c-5.091-1.809-9.801-4.605-14.109-8.569l-1.549-1.425l-44.197,83.527h132.921c17.691,0,31.17-10.638,44.885-20.286
	c16.674-11.736,32.398-20.507,49.125-24.517C304.238,50.507,336.438,60.946,364.833,73.632z"/>
<path fill-rule="evenodd" clip-rule="evenodd" d="M209.848,129.337c-11.203-8.937-18.615-10.217-32.734-10.217H37.456
	l-11.692,22.097c-2.99,5.65-5.691,12.771-6.477,19.778c-0.583,5.196-0.1,10.299,2.165,14.557
	c3.267,6.142,10.034,9.811,17.629,11.974c8.14,2.318,17.213,2.895,24.311,2.895h161.181c-1.664-1.905-2.982-3.645-4.056-5.941
	c-2.471-5.282-1.833-10.063,1.237-15.395l11.929-20.728L209.848,129.337z"/>
</svg>
